<mxfile host="app.diagrams.net" modified="2021-01-09T02:54:56.044Z" agent="5.0 (Windows NT 10.0; Win64; x64) AppleWebKit/537.36 (KHTML, like Gecko) Chrome/87.0.4280.141 Safari/537.36" etag="T1ZrcdZxPPG5XZMHueEe" version="14.1.8" type="github">
  <diagram id="ED8Xu-Xuc325Ch9-4pph" name="第 1 页">
    <mxGraphModel dx="1052" dy="563" grid="1" gridSize="10" guides="1" tooltips="1" connect="1" arrows="1" fold="1" page="1" pageScale="1" pageWidth="827" pageHeight="1169" math="0" shadow="0">
      <root>
        <mxCell id="0" />
        <mxCell id="1" parent="0" />
        <mxCell id="imrd31ICAu4sfwxtOWej-49" style="edgeStyle=orthogonalEdgeStyle;rounded=0;orthogonalLoop=1;jettySize=auto;html=1;exitX=1;exitY=0.5;exitDx=0;exitDy=0;entryX=0;entryY=0.5;entryDx=0;entryDy=0;fontSize=8;" parent="1" source="imrd31ICAu4sfwxtOWej-24" target="imrd31ICAu4sfwxtOWej-29" edge="1">
          <mxGeometry relative="1" as="geometry" />
        </mxCell>
        <mxCell id="imrd31ICAu4sfwxtOWej-31" value="" style="group" parent="1" vertex="1" connectable="0">
          <mxGeometry x="300" y="410" width="90" height="90" as="geometry" />
        </mxCell>
        <mxCell id="imrd31ICAu4sfwxtOWej-28" value="Node1" style="rounded=0;whiteSpace=wrap;html=1;fontSize=8;fillColor=#dae8fc;strokeColor=#6c8ebf;" parent="imrd31ICAu4sfwxtOWej-31" vertex="1">
          <mxGeometry width="90" height="30" as="geometry" />
        </mxCell>
        <mxCell id="imrd31ICAu4sfwxtOWej-29" value="prev" style="rounded=0;whiteSpace=wrap;html=1;fontSize=8;" parent="imrd31ICAu4sfwxtOWej-31" vertex="1">
          <mxGeometry y="30" width="90" height="30" as="geometry" />
        </mxCell>
        <mxCell id="imrd31ICAu4sfwxtOWej-30" value="next" style="rounded=0;whiteSpace=wrap;html=1;fontSize=8;" parent="imrd31ICAu4sfwxtOWej-31" vertex="1">
          <mxGeometry y="60" width="90" height="30" as="geometry" />
        </mxCell>
        <mxCell id="imrd31ICAu4sfwxtOWej-37" value="" style="group" parent="1" vertex="1" connectable="0">
          <mxGeometry x="450" y="410" width="90" height="90" as="geometry" />
        </mxCell>
        <mxCell id="imrd31ICAu4sfwxtOWej-38" value="Node2" style="rounded=0;whiteSpace=wrap;html=1;fontSize=8;fillColor=#dae8fc;strokeColor=#6c8ebf;" parent="imrd31ICAu4sfwxtOWej-37" vertex="1">
          <mxGeometry width="90" height="30" as="geometry" />
        </mxCell>
        <mxCell id="imrd31ICAu4sfwxtOWej-39" value="prev" style="rounded=0;whiteSpace=wrap;html=1;fontSize=8;" parent="imrd31ICAu4sfwxtOWej-37" vertex="1">
          <mxGeometry y="30" width="90" height="30" as="geometry" />
        </mxCell>
        <mxCell id="imrd31ICAu4sfwxtOWej-40" value="next" style="rounded=0;whiteSpace=wrap;html=1;fontSize=8;" parent="imrd31ICAu4sfwxtOWej-37" vertex="1">
          <mxGeometry y="60" width="90" height="30" as="geometry" />
        </mxCell>
        <mxCell id="imrd31ICAu4sfwxtOWej-41" value="" style="group" parent="1" vertex="1" connectable="0">
          <mxGeometry x="600" y="410" width="90" height="90" as="geometry" />
        </mxCell>
        <mxCell id="imrd31ICAu4sfwxtOWej-42" value="Node3" style="rounded=0;whiteSpace=wrap;html=1;fontSize=8;fillColor=#dae8fc;strokeColor=#6c8ebf;" parent="imrd31ICAu4sfwxtOWej-41" vertex="1">
          <mxGeometry width="90" height="30" as="geometry" />
        </mxCell>
        <mxCell id="imrd31ICAu4sfwxtOWej-43" value="prev" style="rounded=0;whiteSpace=wrap;html=1;fontSize=8;" parent="imrd31ICAu4sfwxtOWej-41" vertex="1">
          <mxGeometry y="30" width="90" height="30" as="geometry" />
        </mxCell>
        <mxCell id="imrd31ICAu4sfwxtOWej-44" value="next" style="rounded=0;whiteSpace=wrap;html=1;fontSize=8;" parent="imrd31ICAu4sfwxtOWej-41" vertex="1">
          <mxGeometry y="60" width="90" height="30" as="geometry" />
        </mxCell>
        <mxCell id="imrd31ICAu4sfwxtOWej-45" style="edgeStyle=orthogonalEdgeStyle;rounded=0;orthogonalLoop=1;jettySize=auto;html=1;exitX=0;exitY=0.5;exitDx=0;exitDy=0;entryX=1;entryY=0.5;entryDx=0;entryDy=0;fontSize=8;" parent="1" source="imrd31ICAu4sfwxtOWej-39" target="imrd31ICAu4sfwxtOWej-29" edge="1">
          <mxGeometry relative="1" as="geometry" />
        </mxCell>
        <mxCell id="imrd31ICAu4sfwxtOWej-46" style="edgeStyle=orthogonalEdgeStyle;rounded=0;orthogonalLoop=1;jettySize=auto;html=1;exitX=0;exitY=0.5;exitDx=0;exitDy=0;entryX=1;entryY=0.5;entryDx=0;entryDy=0;fontSize=8;" parent="1" source="imrd31ICAu4sfwxtOWej-43" target="imrd31ICAu4sfwxtOWej-39" edge="1">
          <mxGeometry relative="1" as="geometry" />
        </mxCell>
        <mxCell id="imrd31ICAu4sfwxtOWej-47" style="edgeStyle=orthogonalEdgeStyle;rounded=0;orthogonalLoop=1;jettySize=auto;html=1;exitX=1;exitY=0.5;exitDx=0;exitDy=0;entryX=0;entryY=0.5;entryDx=0;entryDy=0;fontSize=8;" parent="1" source="imrd31ICAu4sfwxtOWej-40" target="imrd31ICAu4sfwxtOWej-44" edge="1">
          <mxGeometry relative="1" as="geometry" />
        </mxCell>
        <mxCell id="imrd31ICAu4sfwxtOWej-48" style="edgeStyle=orthogonalEdgeStyle;rounded=0;orthogonalLoop=1;jettySize=auto;html=1;exitX=1;exitY=0.5;exitDx=0;exitDy=0;entryX=0;entryY=0.5;entryDx=0;entryDy=0;fontSize=8;" parent="1" source="imrd31ICAu4sfwxtOWej-30" target="imrd31ICAu4sfwxtOWej-40" edge="1">
          <mxGeometry relative="1" as="geometry" />
        </mxCell>
        <mxCell id="imrd31ICAu4sfwxtOWej-51" style="edgeStyle=orthogonalEdgeStyle;rounded=0;orthogonalLoop=1;jettySize=auto;html=1;exitX=1;exitY=0.5;exitDx=0;exitDy=0;entryX=0.5;entryY=1;entryDx=0;entryDy=0;fontSize=8;" parent="1" source="imrd31ICAu4sfwxtOWej-25" target="imrd31ICAu4sfwxtOWej-44" edge="1">
          <mxGeometry relative="1" as="geometry">
            <Array as="points">
              <mxPoint x="645" y="565" />
            </Array>
          </mxGeometry>
        </mxCell>
        <mxCell id="imrd31ICAu4sfwxtOWej-56" value="" style="group" parent="1" vertex="1" connectable="0">
          <mxGeometry x="65" y="390" width="120" height="210" as="geometry" />
        </mxCell>
        <mxCell id="imrd31ICAu4sfwxtOWej-26" value="" style="rounded=0;whiteSpace=wrap;html=1;fontSize=8;" parent="imrd31ICAu4sfwxtOWej-56" vertex="1">
          <mxGeometry width="120" height="210" as="geometry" />
        </mxCell>
        <mxCell id="imrd31ICAu4sfwxtOWej-24" value="head" style="rounded=0;whiteSpace=wrap;html=1;fontSize=8;fillColor=#ffe6cc;strokeColor=#d79b00;" parent="imrd31ICAu4sfwxtOWej-56" vertex="1">
          <mxGeometry x="15" y="45" width="90" height="40" as="geometry" />
        </mxCell>
        <mxCell id="imrd31ICAu4sfwxtOWej-25" value="tail" style="rounded=0;whiteSpace=wrap;html=1;fontSize=8;fillColor=#f8cecc;strokeColor=#b85450;" parent="imrd31ICAu4sfwxtOWej-56" vertex="1">
          <mxGeometry x="15" y="154.5" width="90" height="40" as="geometry" />
        </mxCell>
        <mxCell id="imrd31ICAu4sfwxtOWej-27" value="同步器" style="text;html=1;strokeColor=none;fillColor=none;align=center;verticalAlign=middle;whiteSpace=wrap;rounded=0;fontSize=8;" parent="imrd31ICAu4sfwxtOWej-56" vertex="1">
          <mxGeometry x="40" y="10" width="40" height="20" as="geometry" />
        </mxCell>
        <mxCell id="imrd31ICAu4sfwxtOWej-55" value="&lt;font color=&quot;#ff3333&quot;&gt;state状态位&lt;/font&gt;" style="rounded=0;whiteSpace=wrap;html=1;fontSize=8;" parent="imrd31ICAu4sfwxtOWej-56" vertex="1">
          <mxGeometry x="15" y="100" width="90" height="40" as="geometry" />
        </mxCell>
        <mxCell id="imrd31ICAu4sfwxtOWej-57" value="&lt;font style=&quot;font-size: 16px&quot;&gt;compareAndSetTail()&lt;/font&gt;" style="text;html=1;strokeColor=none;fillColor=none;align=center;verticalAlign=middle;whiteSpace=wrap;rounded=0;fontSize=8;" parent="1" vertex="1">
          <mxGeometry x="360" y="540" width="40" height="20" as="geometry" />
        </mxCell>
        <mxCell id="imrd31ICAu4sfwxtOWej-58" value="&lt;font style=&quot;font-size: 16px&quot;&gt;setHead()&lt;/font&gt;" style="text;html=1;strokeColor=none;fillColor=none;align=center;verticalAlign=middle;whiteSpace=wrap;rounded=0;fontSize=8;" parent="1" vertex="1">
          <mxGeometry x="220" y="430" width="40" height="20" as="geometry" />
        </mxCell>
        <mxCell id="imrd31ICAu4sfwxtOWej-2" value="&lt;font style=&quot;font-size: 18px&quot;&gt;AQS=state状态位 +双向CLH队列&lt;/font&gt;" style="text;html=1;strokeColor=none;fillColor=none;align=center;verticalAlign=middle;whiteSpace=wrap;rounded=0;" parent="1" vertex="1">
          <mxGeometry x="271" y="190" width="285" height="20" as="geometry" />
        </mxCell>
        <mxCell id="imrd31ICAu4sfwxtOWej-62" value="" style="group" parent="1" vertex="1" connectable="0">
          <mxGeometry x="70" y="230" width="420" height="210" as="geometry" />
        </mxCell>
        <mxCell id="imrd31ICAu4sfwxtOWej-4" value="" style="rounded=0;whiteSpace=wrap;html=1;fillColor=#d5e8d4;strokeColor=#82b366;" parent="imrd31ICAu4sfwxtOWej-62" vertex="1">
          <mxGeometry width="420" height="140" as="geometry" />
        </mxCell>
        <mxCell id="imrd31ICAu4sfwxtOWej-5" value="&lt;font style=&quot;font-size: 18px&quot;&gt;Node&amp;lt;Thread&amp;gt;&lt;/font&gt;" style="text;html=1;strokeColor=none;fillColor=none;align=center;verticalAlign=middle;whiteSpace=wrap;rounded=0;" parent="imrd31ICAu4sfwxtOWej-62" vertex="1">
          <mxGeometry x="300" y="120" width="110" height="20" as="geometry" />
        </mxCell>
        <mxCell id="imrd31ICAu4sfwxtOWej-6" value="waitStatus：当前节点在队列中的状态" style="text;html=1;strokeColor=none;fillColor=none;align=center;verticalAlign=middle;whiteSpace=wrap;rounded=0;" parent="imrd31ICAu4sfwxtOWej-62" vertex="1">
          <mxGeometry x="140" y="10" width="210" height="20" as="geometry" />
        </mxCell>
        <mxCell id="imrd31ICAu4sfwxtOWej-7" value="thread：表示处于该节点的线程" style="text;html=1;strokeColor=none;fillColor=none;align=center;verticalAlign=middle;whiteSpace=wrap;rounded=0;" parent="imrd31ICAu4sfwxtOWej-62" vertex="1">
          <mxGeometry x="145" y="30" width="210" height="20" as="geometry" />
        </mxCell>
        <mxCell id="imrd31ICAu4sfwxtOWej-8" value="prev：前驱指针" style="text;html=1;strokeColor=none;fillColor=none;align=center;verticalAlign=middle;whiteSpace=wrap;rounded=0;" parent="imrd31ICAu4sfwxtOWej-62" vertex="1">
          <mxGeometry x="150" y="50" width="140" height="20" as="geometry" />
        </mxCell>
        <mxCell id="imrd31ICAu4sfwxtOWej-9" value="predecessor：返回前驱节点，没有的话抛出NPE" style="text;html=1;strokeColor=none;fillColor=none;align=center;verticalAlign=middle;whiteSpace=wrap;rounded=0;" parent="imrd31ICAu4sfwxtOWej-62" vertex="1">
          <mxGeometry x="130" y="70" width="270" height="20" as="geometry" />
        </mxCell>
        <mxCell id="imrd31ICAu4sfwxtOWej-10" value="nextWaiter：指向下一个CONDITION状态的节点" style="text;html=1;strokeColor=none;fillColor=none;align=center;verticalAlign=middle;whiteSpace=wrap;rounded=0;" parent="imrd31ICAu4sfwxtOWej-62" vertex="1">
          <mxGeometry x="135" y="90" width="270" height="20" as="geometry" />
        </mxCell>
        <mxCell id="imrd31ICAu4sfwxtOWej-11" value="next：后继指针" style="text;html=1;strokeColor=none;fillColor=none;align=center;verticalAlign=middle;whiteSpace=wrap;rounded=0;" parent="imrd31ICAu4sfwxtOWej-62" vertex="1">
          <mxGeometry x="135" y="110" width="165" height="20" as="geometry" />
        </mxCell>
        <mxCell id="imrd31ICAu4sfwxtOWej-18" value="&lt;font style=&quot;font-size: 9px&quot;&gt;0：默认值&lt;br style=&quot;font-size: 9px&quot;&gt;1：CANCELLED&lt;br style=&quot;font-size: 9px&quot;&gt;-2: CONDITION&lt;br style=&quot;font-size: 9px&quot;&gt;-3: PROPAGATE&lt;br&gt;-1: SIGNAL&lt;br&gt;&lt;/font&gt;" style="whiteSpace=wrap;html=1;fontSize=8;fillColor=#b1ddf0;strokeColor=#10739e;" parent="imrd31ICAu4sfwxtOWej-62" vertex="1">
          <mxGeometry x="10" y="50" width="120" height="80" as="geometry" />
        </mxCell>
        <mxCell id="imrd31ICAu4sfwxtOWej-19" value="" style="edgeStyle=orthogonalEdgeStyle;rounded=0;orthogonalLoop=1;jettySize=auto;html=1;fontSize=8;" parent="imrd31ICAu4sfwxtOWej-62" source="imrd31ICAu4sfwxtOWej-6" target="imrd31ICAu4sfwxtOWej-18" edge="1">
          <mxGeometry x="-10" y="-70" as="geometry" />
        </mxCell>
        <mxCell id="imrd31ICAu4sfwxtOWej-65" style="edgeStyle=orthogonalEdgeStyle;rounded=0;orthogonalLoop=1;jettySize=auto;html=1;exitX=0.07;exitY=0.4;exitDx=0;exitDy=0;exitPerimeter=0;entryX=1;entryY=0.5;entryDx=0;entryDy=0;fontSize=8;" parent="1" source="imrd31ICAu4sfwxtOWej-63" target="imrd31ICAu4sfwxtOWej-4" edge="1">
          <mxGeometry relative="1" as="geometry">
            <Array as="points">
              <mxPoint x="558" y="300" />
            </Array>
          </mxGeometry>
        </mxCell>
        <mxCell id="imrd31ICAu4sfwxtOWej-63" value="Node节点" style="ellipse;shape=cloud;whiteSpace=wrap;html=1;fontSize=8;" parent="1" vertex="1">
          <mxGeometry x="540" y="270" width="120" height="60" as="geometry" />
        </mxCell>
      </root>
    </mxGraphModel>
  </diagram>
</mxfile>
